<?xml version="1.0" encoding="iso-8859-1"?>
<!-- Generator: Adobe Illustrator 19.0.0, SVG Export Plug-In . SVG Version: 6.00 Build 0)  -->
<svg version="1.1" id="Capa_1" xmlns="http://www.w3.org/2000/svg" xmlns:xlink="http://www.w3.org/1999/xlink" x="0px" y="0px"
	 viewBox="0 0 512 512" style="enable-background:new 0 0 512 512;" xml:space="preserve">
<path style="fill:#415A6B;" d="M290.133,482.133v-448C290.133,14.933,275.2,0,256,0c-19.2,0-34.133,14.933-34.133,34.133v446.933
	h68.267V482.133z"/>
<path style="fill:#344A5E;" d="M365.867,512C345.6,472.533,304,445.867,256,445.867S167.467,472.533,146.133,512H365.867z"/>
<path style="fill:#F3705A;" d="M469.333,346.667H42.667C19.2,346.667,0,327.467,0,304V92.8c0-23.467,19.2-42.667,42.667-42.667
	h426.667C492.8,50.133,512,69.333,512,92.8V304C512,327.467,492.8,346.667,469.333,346.667z"/>
<rect x="42.667" y="92.8" style="fill:#FFFFFF;" width="426.667" height="211.2"/>
<g>
	<path style="fill:#66C6B9;" d="M151.467,182.4c0,14.933-6.4,24.533-18.133,28.8l23.467,34.133h-25.6l-21.333-29.867H96v29.867
		H74.667v-93.867h35.2c14.933,0,24.533,2.133,30.933,7.467C148.267,163.2,151.467,171.733,151.467,182.4z M125.867,193.067
		c2.133-2.133,4.267-6.4,4.267-10.667c0-5.333-1.067-8.533-4.267-10.667c-3.2-2.133-7.467-3.2-13.867-3.2H96v27.733h14.933
		C118.4,197.333,123.733,196.267,125.867,193.067z"/>
	<path style="fill:#66C6B9;" d="M240,151.467v19.2h-46.933v19.2h41.6V208h-41.6v19.2h48v18.133h-69.333v-93.867H240z"/>
	<path style="fill:#66C6B9;" d="M326.4,151.467h21.333v93.867H326.4l-44.8-58.667v58.667h-21.333v-93.867h19.2l45.867,60.8v-60.8
		H326.4z"/>
	<path style="fill:#66C6B9;" d="M410.667,169.6v75.733h-21.333V169.6h-26.667v-18.133h74.667V169.6H410.667z"/>
</g>
<g>
</g>
<g>
</g>
<g>
</g>
<g>
</g>
<g>
</g>
<g>
</g>
<g>
</g>
<g>
</g>
<g>
</g>
<g>
</g>
<g>
</g>
<g>
</g>
<g>
</g>
<g>
</g>
<g>
</g>
</svg>
